<svg xmlns="http://www.w3.org/2000/svg" version="1.1" xmlns:xlink="http://www.w3.org/1999/xlink" xmlns:svgjs="http://svgjs.dev/svgjs" width="1500" height="1500" viewBox="0 0 1500 1500"><rect width="1500" height="1500" fill="#000000"></rect><g transform="matrix(0.6666666666666666,0,0,0.6666666666666666,250.00007343750008,187.66666666666674)"><svg viewBox="0 0 320 360" data-background-color="#97978d" preserveAspectRatio="xMidYMid meet" height="1687" width="1500" xmlns="http://www.w3.org/2000/svg" xmlns:xlink="http://www.w3.org/1999/xlink"><g id="tight-bounds" transform="matrix(1,0,0,1,0.000023499999997511622,0)"><svg viewBox="0 0 320 360" height="360" width="320"><g><svg></svg></g><g><svg viewBox="0 0 320 360" height="360" width="320"><g><path transform="translate(-74.99272,-51.79039) scale(4.65793,4.65793)" d="M20.6 59.9l0.8 1-0.4-1.3c-0.1-0.6-0.8 0.1-0.4 0.3M21.5 59.3c0.3 0.5 0.6 1 0.6 1.5 0 0.7 0.6 1 1.1 1.2-0.7-0.8-1.1-3-1.7-2.7M59.9 16.9c1.7 0 3.3-0.2 5.1 0.2 4.4 1.1 8.1 3.3 10.6 6.4l7 11.2c0.3 2.8 0.9 5.9 0.8 9.3 0.7 0 0.6-1 1.4-1.2-0.8 2-1.2 4.5-1.4 7.4-0.5-1.6 0-4 0.1-5.3-0.7 1.1-1.1 0.3-1.1-0.2 0.1-0.8-0.3-0.7-0.6-1-1.1-1-1.8-2.1-2.6-3.8 0.5-1.3 0.6-3.2-1-4.2-0.5-0.3-1.1-0.8-1.4-1.6-0.4-1.1-1.1-2.4-0.9-4.1 0.1-0.5-1.5 1.1-2.4 0.4-3.9-2.7-7.8-5.8-12.5-8.4-2.5 0-4.3-0.9-5.2-2-0.8-1-0.2-2.3 1-2.4 0.7 0 1.5-0.2 2.1 0.2 0.1-0.4 0.5-0.9 1-0.9M50 14.6l0.2 0.1c1 0.2 1.5 1.6 2.6 1.1 0 0.7 0.1 1.4-0.1 1.9-0.3 0.8-1.2 0.8-1.9 0.8-6.7-0.4-10.6 2.4-14.7 4.8-1.1 0.7-2.3 1.2-3.2 2.1-4.3 4-9 7.7-10.1 15.1l-0.9 8.2c-0.1 0.9-1.1 1.8-0.9 2.9l0.7 4.9c-0.7-0.7-1.1 0.2-0.9 0.6 0.1 0.3 0.5 1.3 1.1 0.4 0.8 1.5 1.6 4.4 2.7 5.7 3.4 4 7.8 7.6 11.4 11.2 0.9-0.2 1.6-0.2 1.8-0.8 0.3 0.6-0.3 1.2-0.8 1.3 1.6 1 3.4 1.9 5.8 2.1 3.1 0.2 6 0.7 8.7 1.4 1.4-0.4 2.8-0.6 4.3-0.7 0.5 0 0.8-0.8 1.4-1l0.1-1c0.6 0.9 0.5-0.3 0.1-0.9 0.7 0.6 0.9 1.1 1.2 1.5 0-0.3 0.8-1.4 0.8-0.1l0.2-1.3c0.3-0.2 0.4 1.1 0.7 0.2 0.3-0.9 0.9-0.2 1.5-0.5-0.2 0.4-0.1 1.2 0.6 0.7l0.8-0.7c0.5 1.2 1.3 0.7 1.7 0.5 4.4-2.8 8.8-6.1 13-9.4l-0.1 1.3 0.5-1.6c0.5 0.5 0.9 0.1 1.1-0.2 0.6-1 1.4-2 2.7-2.9-1.6 4.3-3.5 7.7-5.9 10.5l-1 1.2c0 0.7-0.2 1.6-1 1.7-0.4 0.1-1.2-0.2-1.8 0.4-0.3 0.4 0.7 1.2-0.1 0.6-0.7-0.5-1.4 0-2.2 0.2-0.6 0.2 0.4 0.8 0.6 1.2 0.2 0.4 0.4 0.8 0.3 1.3l-1.1-1.2c-1.3 0.7-2.1 2-3.2 3-0.5 0.4-0.3 1.1-0.3 1.7-0.7 0-1.5-0.2-1.9 0.2-0.3 0.4-0.2 1-0.2 1.6-1-0.1-1.1-1.6-2-1.3-0.9 0.2-1.9 0.3-2.7 0.8 0.6 1.2-1 0.5-0.8 0.7-1.5-0.9-2.8-1.6-4.4-1-3.4-1.1-7.6-0.6-10.7-0.2 0-0.5 0.1-1-0.1-1.1-0.2 0.5-0.8 0.3-0.7 0.3-1.9-1.3-3.8-2.1-5.8-3.2-1.8 0.2-3.5-0.7-4-1.2-1.4-1.3-3-0.6-4.3-0.9-2.8-0.7-3.8-3.6-4.1-5.6-0.2-1-1-1.4-1.3-1.3-1.3-4.2-3.3-8-4.9-11.9-0.4-1-0.3-2-0.3-3.1 0.5 0.2 1 0.1 0.9-0.6-0.5-3.3-1.7-5.8-3-8.2 0.7-3.4 0.8-7.4 2.4-10.4 1.4-2.7 4-4.1 5.8-6.4 0.6-0.8 0.6-1.9 1.2-2.6 2-2 4-4.1 6.2-5.9 1-0.8 2.2 0 3.7-0.3 0.5-1.8 2.5-3.4 4.4-2.9 0.8 0.2 2.4-1.9 2.9-2.1 0.8-0.3 0.4 0.8 0.4 1.5 1.9-1.5 4.5-2.3 6.9-3.2" fill="#ffffff" fill-rule="nonzero" stroke="none" stroke-width="1" stroke-linecap="butt" stroke-linejoin="miter" stroke-miterlimit="10" stroke-dasharray="" stroke-dashoffset="0" font-family="none" font-weight="none" font-size="none" text-anchor="none" style="mix-blend-mode: normal" data-fill-palette-color="tertiary"></path></g><g transform="matrix(1,0,0,1,64,105.94315201990875)"><svg viewBox="0 0 192 148.1136959601825" height="148.1136959601825" width="192"><g><svg viewBox="0 0 192 148.1136959601825" height="148.1136959601825" width="192"><g transform="matrix(1,0,0,1,0,90.7764914807134)"><svg viewBox="0 0 192 57.3372044794691" height="57.3372044794691" width="192"><g id="textblocktransform"><svg viewBox="0 0 192 57.3372044794691" height="57.3372044794691" width="192" id="textblock"><g><svg viewBox="0 0 192 57.3372044794691" height="57.3372044794691" width="192"><g transform="matrix(1,0,0,1,0,0)"><svg width="192" viewBox="1.75 -35.25 120.54 36" height="57.3372044794691" data-palette-color="#ffffff"><path d="M14.45-35.25Q20.55-35.25 23.85-30.8 27.15-26.35 27.15-17.3L27.15-17.3Q27.15-8.35 23.85-3.8 20.55 0.75 14.45 0.75L14.45 0.75Q8.4 0.75 5.08-3.75 1.75-8.25 1.75-17.25L1.75-17.25Q1.75-26.15 5.08-30.7 8.4-35.25 14.45-35.25L14.45-35.25ZM14.45-30.45Q11.4-30.45 9.93-27.4 8.45-24.35 8.45-17.25L8.45-17.25Q8.45-10.1 9.95-7.13 11.45-4.15 14.45-4.15L14.45-4.15Q17.55-4.15 19.03-7.1 20.5-10.05 20.5-17.3L20.5-17.3Q20.5-24.4 19-27.43 17.5-30.45 14.45-30.45L14.45-30.45ZM45.95-18.3Q49.3-17.55 51.22-15.63 53.15-13.7 53.15-9.9L53.15-9.9Q53.15-4.9 49.77-2.45 46.4 0 40.6 0L40.6 0 31.9 0 31.9-34.55 39.45-34.55Q45.4-34.55 48.65-32.3 51.9-30.05 51.9-25.75L51.9-25.75Q51.9-22.85 50.27-20.95 48.65-19.05 45.95-18.3L45.95-18.3ZM40.1-29.85L38.25-29.85 38.25-20.3 40.4-20.3Q45.45-20.3 45.45-25.2L45.45-25.2Q45.45-27.65 44.17-28.75 42.9-29.85 40.1-29.85L40.1-29.85ZM40.65-4.8Q43.55-4.8 45.05-6.03 46.55-7.25 46.55-10.15L46.55-10.15Q46.55-13.05 45.15-14.43 43.75-15.8 40.8-15.8L40.8-15.8 38.25-15.8 38.25-4.8 40.65-4.8ZM54.7-34.55L76.25-34.55 75.55-29.55 68.45-29.55 68.45 0 62.09 0 62.09-29.55 54.7-29.55 54.7-34.55ZM79.29-34.55L96.44-34.55 95.79-29.8 85.64-29.8 85.64-19.9 94.49-19.9 94.49-15.2 85.64-15.2 85.64-4.8 96.44-4.8 96.44 0 79.29 0 79.29-34.55ZM115.79-34.55L122.29-34.55 113.19-13.15 113.19 0 106.79 0 106.79-13.1 97.69-34.55 104.44-34.55 110.09-18.3 115.79-34.55Z" opacity="1" transform="matrix(1,0,0,1,0,0)" fill="#ffffff" class="wordmark-text-0" data-fill-palette-color="primary" id="text-0"></path></svg></g></svg></g></svg></g></svg></g><g transform="matrix(1,0,0,1,46.28910487344086,0)"><svg viewBox="0 0 99.42179025311827 82.40961725425136" height="82.40961725425136" width="99.42179025311827"><g><svg xmlns="http://www.w3.org/2000/svg" xmlns:xlink="http://www.w3.org/1999/xlink" version="1.1" x="0" y="0" viewBox="5 12.700000000000001 90 74.6" style="enable-background:new 0 0 100 100;" xml:space="preserve" height="82.40961725425136" width="99.42179025311827" class="icon-icon-0" data-fill-palette-color="accent" id="icon-0"><path d="M5 20.1l7.4-7.4 26.1 26.1 7.5 7.4-7.5 7.4L12.4 79.7 5 72.3l26.1-26.1L5 20.1zM95 87.3V75.7H48.8v11.6H95z" fill="#ffffff" data-fill-palette-color="accent"></path></svg></g></svg></g><g></g></svg></g></svg></g></svg></g><defs></defs></svg><rect width="320" height="360" fill="none" stroke="none" visibility="hidden"></rect></g></svg></g></svg>