<?xml version="1.0" standalone="no"?>
<!DOCTYPE svg PUBLIC "-//W3C//DTD SVG 20010904//EN"
 "http://www.w3.org/TR/2001/REC-SVG-20010904/DTD/svg10.dtd">
<svg version="1.0" xmlns="http://www.w3.org/2000/svg"
 width="1687.000000pt" height="1687.000000pt" viewBox="0 0 1687.000000 1687.000000"
 preserveAspectRatio="xMidYMid meet">
<metadata>
Created by potrace 1.14, written by Peter Selinger 2001-2017
</metadata>
<g transform="translate(0.000000,1687.000000) scale(0.100000,-0.100000)"
fill="#000000" stroke="none">
<path d="M8235 16075 c-49 -18 -187 -70 -305 -114 -118 -44 -255 -96 -305
-116 -49 -20 -112 -46 -139 -57 -157 -62 -453 -225 -586 -321 -69 -51 -84 -56
-76 -29 7 25 18 128 21 196 4 68 -9 104 -41 112 -55 14 -100 -19 -327 -239
-90 -88 -195 -170 -254 -199 l-64 -31 -97 13 c-87 11 -190 10 -247 -3 -296
-69 -557 -305 -655 -591 -11 -33 -23 -50 -36 -53 -54 -10 -242 -8 -334 3 -204
25 -334 14 -409 -34 -23 -14 -187 -147 -201 -162 -3 -3 -43 -39 -90 -80 -47
-41 -112 -99 -144 -130 -33 -30 -96 -89 -140 -130 -45 -41 -254 -248 -466
-460 -432 -431 -411 -405 -491 -640 -82 -245 -113 -291 -374 -554 -72 -72
-177 -174 -234 -226 -392 -357 -555 -532 -690 -740 -66 -102 -156 -274 -186
-355 -10 -27 -22 -54 -25 -60 -23 -33 -145 -451 -165 -565 -3 -17 -12 -61 -19
-98 -32 -149 -87 -491 -131 -809 -3 -21 -12 -76 -20 -123 -8 -47 -17 -103 -20
-125 -2 -22 -7 -53 -11 -70 -3 -16 -13 -74 -23 -128 l-18 -98 44 -82 c141
-266 262 -523 343 -727 41 -103 146 -411 154 -453 3 -12 16 -65 29 -117 22
-84 37 -149 52 -231 3 -13 7 -35 10 -49 3 -14 10 -62 17 -107 10 -72 10 -87
-4 -117 -25 -51 -104 -70 -172 -41 -17 8 -18 -1 -13 -226 2 -129 8 -247 11
-264 28 -122 38 -151 158 -435 42 -98 249 -566 305 -690 58 -126 223 -501 223
-505 0 -2 11 -28 24 -57 43 -95 136 -319 136 -329 0 -5 5 -17 10 -27 20 -34
105 -261 185 -496 l82 -238 36 -4 c49 -4 84 -24 139 -79 65 -65 103 -154 123
-290 3 -22 10 -58 16 -80 6 -22 13 -48 14 -57 19 -96 83 -275 141 -389 143
-286 343 -478 598 -574 122 -46 184 -54 422 -54 121 0 232 -2 245 -5 13 -3 40
-8 59 -10 102 -15 205 -67 327 -167 45 -37 115 -85 155 -107 71 -39 239 -106
289 -116 13 -2 44 -9 69 -15 79 -18 142 -24 261 -25 68 -1 122 -6 130 -12 15
-12 174 -95 459 -241 325 -167 506 -268 662 -369 111 -73 137 -85 168 -79 47
9 62 18 80 47 18 30 18 30 30 9 6 -12 11 -57 10 -99 -2 -137 -8 -125 58 -117
31 4 71 9 88 11 18 1 67 8 110 13 76 11 190 23 339 36 39 4 81 8 94 10 157 25
904 25 1052 0 13 -2 47 -6 74 -9 105 -12 245 -39 375 -73 74 -19 140 -35 145
-35 6 -1 35 6 65 15 242 70 485 10 839 -205 37 -23 55 -27 154 -33 57 -4 71
-1 87 15 20 20 20 73 -1 111 -5 11 -7 24 -4 29 20 32 222 101 397 135 40 8 84
17 98 20 178 40 198 34 299 -95 76 -96 100 -120 147 -145 26 -14 53 -25 59
-25 9 0 14 37 17 138 3 108 8 144 22 172 44 83 129 103 363 85 l71 -5 -1 132
c-2 116 1 138 18 169 21 38 229 262 460 494 79 79 161 151 209 182 l78 52 77
-82 c42 -45 97 -104 123 -132 l48 -50 0 51 c0 62 -30 162 -67 226 -16 26 -58
78 -96 116 -69 72 -91 119 -65 138 7 6 72 30 143 53 197 65 274 66 370 1 66
-44 68 -44 40 1 -15 23 -30 60 -32 81 -5 34 -2 41 31 71 52 48 93 59 256 66
120 6 152 11 186 28 77 41 130 142 140 272 7 78 -1 66 200 307 86 104 175 214
198 244 22 30 43 57 46 60 29 27 258 364 382 562 95 153 406 748 391 748 -3 0
-1 6 5 13 25 30 296 687 283 687 -12 -1 -127 -91 -206 -163 -112 -100 -221
-229 -325 -383 -49 -72 -101 -139 -116 -149 -46 -30 -94 -30 -137 -1 -26 18
-39 22 -42 13 -2 -6 -18 -57 -35 -112 -18 -55 -40 -122 -51 -150 l-19 -50 5
40 c2 22 7 80 10 128 l6 89 -43 -31 c-24 -17 -62 -46 -84 -64 -167 -130 -229
-179 -384 -298 -141 -109 -554 -420 -790 -595 -25 -19 -49 -37 -55 -42 -5 -4
-46 -34 -90 -65 -44 -31 -118 -84 -165 -118 -47 -34 -114 -82 -150 -107 -36
-25 -105 -75 -155 -111 -98 -71 -730 -495 -862 -579 -91 -58 -168 -91 -222
-96 -70 -6 -144 42 -183 119 -11 22 -22 42 -24 44 -3 3 -110 -87 -162 -137
-18 -17 -49 -33 -83 -42 -23 -7 -33 -4 -55 17 -25 23 -26 28 -22 94 l5 69 -26
-7 c-30 -7 -24 -8 -126 1 -74 7 -83 5 -109 -15 -16 -12 -41 -51 -57 -86 -35
-78 -49 -79 -89 -8 -37 66 -62 68 -71 5 -16 -110 -18 -127 -24 -165 -9 -54
-11 -54 -19 -1 -4 24 -13 50 -21 56 -30 25 -81 -12 -124 -89 l-28 -52 -52 80
c-60 92 -143 194 -178 216 -24 16 -24 16 -9 -7 41 -63 67 -206 42 -227 -10 -9
-21 -4 -46 19 -18 17 -34 29 -35 28 -2 -2 -6 -39 -10 -83 -4 -44 -9 -87 -11
-95 -1 -8 -3 -18 -3 -21 -1 -4 -13 -12 -29 -18 -15 -6 -63 -47 -107 -90 -119
-115 -107 -110 -310 -126 -33 -2 -80 -7 -105 -10 -25 -3 -65 -7 -90 -10 -137
-15 -441 -75 -552 -109 -26 -7 -48 -12 -50 -11 -2 2 -16 6 -33 9 -16 3 -57 12
-90 21 -52 13 -230 53 -445 100 -36 8 -81 17 -100 20 -19 3 -60 10 -90 15 -30
5 -68 12 -85 14 -16 3 -41 8 -55 10 -27 6 -85 15 -140 22 -19 2 -42 6 -50 9
-8 2 -37 7 -65 10 -58 6 -106 12 -155 19 -45 7 -109 14 -190 21 -36 3 -81 8
-100 10 -77 9 -139 15 -225 20 -214 13 -443 56 -640 121 -186 62 -319 123
-538 247 l-159 90 41 21 c61 32 90 57 116 101 30 51 36 85 23 131 l-10 36 -14
-27 c-27 -52 -95 -92 -184 -109 -14 -3 -36 -7 -50 -10 -14 -3 -51 -11 -84 -17
l-59 -10 -39 38 c-22 21 -84 81 -138 133 -116 113 -380 364 -465 440 -33 30
-67 62 -75 70 -11 11 -215 201 -316 295 -102 94 -277 258 -343 320 -46 44
-109 104 -140 133 -280 265 -692 690 -881 908 -202 232 -267 351 -470 859 -61
154 -134 327 -162 385 l-50 105 -21 -27 c-28 -34 -73 -57 -97 -51 -11 3 -32
17 -46 32 -32 31 -85 143 -86 180 -1 43 21 99 49 121 34 27 72 25 117 -5 l37
-25 -6 62 c-4 35 -8 65 -10 68 -1 3 -6 30 -9 61 -4 31 -9 67 -11 80 -5 22 -7
40 -20 144 -3 22 -10 72 -16 110 -30 197 -32 209 -44 311 -3 22 -12 86 -21
144 -30 197 -21 246 81 455 80 165 93 195 100 248 11 84 15 113 20 167 7 62
11 103 20 175 6 51 10 90 20 192 3 32 7 75 10 95 3 20 7 56 9 80 3 24 7 61 10
83 3 22 8 69 11 105 4 36 8 72 10 81 2 8 6 53 10 100 4 46 9 93 11 103 2 11 6
47 9 80 5 58 9 94 20 176 3 19 7 62 10 95 4 33 8 76 10 95 3 19 7 60 10 90 5
53 13 113 21 155 2 10 6 35 9 55 7 50 13 78 20 100 3 10 7 31 10 46 7 55 74
300 115 424 121 364 305 723 539 1050 89 125 245 321 355 445 97 110 517 529
681 680 66 61 134 124 151 140 18 17 69 64 115 105 45 41 117 107 158 146 170
159 223 197 581 403 69 39 134 77 145 84 109 67 599 357 689 406 28 16 92 51
141 78 103 57 364 187 445 222 179 77 446 176 529 197 9 2 59 15 111 29 88 24
244 59 315 70 17 3 41 7 55 10 25 5 46 8 125 19 22 3 65 8 96 11 30 2 84 8
120 11 35 4 228 7 429 9 392 1 419 4 492 56 47 34 65 57 89 119 19 48 23 76
24 215 2 202 3 197 -43 181 -82 -29 -155 -1 -290 109 -104 85 -152 116 -212
137 -25 9 -52 18 -60 22 -8 3 -55 -10 -105 -29z m-6072 -9726 c33 -15 79 -95
144 -247 66 -156 131 -286 155 -312 26 -28 7 -25 -52 7 -108 58 -154 116 -165
209 -14 117 -44 200 -111 305 -30 48 -20 60 29 38z m-185 -17 c7 -5 34 -80 61
-168 28 -87 44 -152 38 -143 -7 9 -28 36 -48 60 -20 24 -60 72 -88 106 -57 70
-62 93 -26 128 25 26 41 30 63 17z"/>
<path d="M10737 15613 c-1 -1 -64 -3 -139 -4 -108 -2 -146 -6 -178 -20 -49
-22 -99 -73 -126 -129 -12 -27 -24 -39 -34 -36 -8 3 -35 12 -60 21 -50 19
-180 23 -345 12 -83 -5 -110 -12 -162 -37 -156 -77 -218 -264 -138 -420 24
-47 139 -174 200 -220 43 -33 159 -102 198 -119 23 -10 62 -28 87 -39 152 -69
392 -117 626 -126 70 -2 73 -4 247 -104 180 -104 443 -264 463 -280 5 -5 21
-15 35 -22 25 -13 595 -393 684 -456 28 -20 95 -68 150 -107 329 -233 441
-312 445 -317 6 -6 488 -350 672 -479 64 -45 132 -88 150 -95 74 -31 188 -4
362 88 93 50 118 53 110 14 -5 -27 -5 -212 0 -248 18 -120 31 -178 63 -275 46
-143 144 -388 179 -453 44 -78 147 -182 244 -246 213 -141 304 -313 302 -571
-1 -115 -13 -188 -53 -321 -12 -40 -11 -43 58 -180 85 -169 216 -383 265 -435
7 -8 25 -31 40 -51 48 -63 206 -216 252 -243 54 -32 78 -84 73 -160 -5 -59 15
-124 46 -153 45 -41 78 -33 145 36 31 31 53 52 50 47 -4 -6 -9 -40 -13 -75 -3
-36 -11 -96 -16 -134 -5 -38 -12 -94 -14 -125 -3 -31 -7 -69 -10 -86 -28 -201
-24 -514 10 -655 16 -68 22 -53 29 75 4 55 8 111 10 125 3 14 7 61 11 105 4
44 9 89 10 100 2 11 6 43 10 70 13 106 37 261 56 358 11 56 22 116 25 132 23
125 129 487 160 548 16 31 7 34 -34 13 -36 -19 -69 -57 -125 -142 -32 -49 -58
-77 -83 -89 -20 -9 -39 -14 -42 -10 -4 4 -7 82 -8 173 -1 159 -11 421 -19 507
-3 22 -7 69 -10 105 -8 101 -15 165 -31 300 -21 188 -25 222 -29 239 -2 14 -9
73 -21 171 -2 19 -9 69 -14 110 -18 123 -19 132 -26 200 -4 36 -8 72 -9 80 -2
8 -6 44 -10 79 -7 62 -16 78 -383 665 -206 331 -389 624 -407 651 -62 96 -90
140 -101 160 -80 143 -669 1065 -711 1114 -32 36 -123 131 -203 211 -456 457
-1064 809 -1770 1027 -137 43 -201 61 -235 68 -88 19 -184 37 -215 40 -19 3
-71 9 -115 14 -67 7 -571 11 -578 4z"/>
<path d="M6289 11712 l-188 -188 676 -676 676 -676 -676 -676 -676 -677 191
-190 c104 -105 191 -189 193 -187 2 2 393 392 869 866 l866 864 -866 864
c-477 475 -868 864 -871 864 -3 0 -90 -85 -194 -188z"/>
<path d="M8379 8639 c-8 -5 -11 -146 -9 -490 l0 -106 1195 1 1195 0 -2 300 -3
300 -1183 1 c-651 0 -1188 -3 -1193 -6z"/>
<path d="M4690 7635 c-137 -30 -203 -57 -305 -126 -119 -80 -220 -199 -293
-344 -37 -75 -86 -212 -101 -285 -19 -94 -21 -104 -26 -140 -3 -19 -7 -44 -10
-55 -27 -133 -27 -564 0 -765 13 -90 57 -275 86 -351 126 -342 373 -554 692
-594 424 -53 762 118 931 471 55 114 90 212 102 280 2 16 7 35 10 43 2 8 7 30
10 50 3 20 9 59 14 86 31 166 33 572 4 799 -20 154 -78 355 -135 468 -108 215
-273 364 -479 432 -104 34 -126 37 -290 41 -99 3 -165 -1 -210 -10z m317 -365
c69 -24 130 -74 177 -145 38 -56 77 -152 91 -221 5 -22 10 -43 11 -49 9 -33
20 -102 31 -205 16 -152 8 -716 -12 -790 -2 -8 -7 -34 -10 -57 -30 -216 -119
-369 -253 -435 -61 -30 -74 -33 -162 -33 -83 0 -102 3 -150 27 -138 68 -233
234 -265 463 -4 28 -9 58 -11 67 -18 103 -25 555 -11 715 26 301 83 479 187
583 99 100 237 129 377 80z"/>
<path d="M6182 6310 l0 -1292 426 5 c235 2 438 7 452 10 14 3 41 8 60 11 68
10 212 57 278 90 258 130 373 334 367 649 -3 117 -11 164 -47 257 -57 146
-190 253 -396 320 l-83 27 61 23 c81 30 169 88 229 150 47 49 112 159 125 211
24 104 25 233 2 332 -47 200 -198 350 -433 428 -164 55 -224 61 -650 66 l-391
5 0 -1292z m795 916 c130 -36 197 -119 212 -265 22 -219 -62 -363 -239 -411
-40 -11 -260 -21 -285 -13 -8 3 -13 582 -6 696 1 18 10 18 134 13 72 -3 156
-12 184 -20z m11 -1041 c113 -23 202 -87 243 -174 45 -96 56 -277 24 -389 -32
-110 -87 -167 -203 -210 -58 -21 -89 -25 -226 -30 -104 -3 -160 -1 -165 6 -5
8 -7 749 -2 800 1 17 244 15 329 -3z"/>
<path d="M7884 7418 c0 -101 3 -185 7 -188 4 -3 127 -5 273 -5 146 1 267 -2
267 -5 1 -3 2 -498 3 -1100 l1 -1095 238 -3 237 -2 0 1103 0 1103 265 -1 c146
0 265 2 265 5 0 3 5 34 10 70 5 36 12 83 15 105 3 22 8 51 10 65 3 14 7 49 10
78 l6 52 -804 0 -803 0 0 -182z"/>
<path d="M9720 7513 c0 -185 0 -2342 0 -2415 l0 -78 640 0 639 0 0 180 0 180
-404 0 -403 0 2 388 1 387 327 0 c321 0 328 0 329 20 3 52 4 311 1 320 -2 7
-110 11 -328 10 -317 0 -325 0 -329 20 -2 11 -3 177 -2 370 l2 350 378 0 c207
0 377 2 377 5 0 3 4 32 9 65 9 56 14 89 26 175 2 19 7 52 10 73 l5 37 -640 0
-640 0 0 -87z"/>
<path d="M11100 7590 c0 -9 57 -148 105 -255 14 -32 185 -436 230 -545 15 -36
35 -83 45 -105 10 -22 36 -83 58 -135 22 -52 83 -197 136 -322 l96 -227 0
-490 0 -491 240 0 240 0 0 493 0 493 49 115 c27 62 126 296 221 519 94 223
177 419 185 435 13 29 47 110 65 150 4 11 11 27 14 35 3 8 36 87 74 175 l69
160 -240 3 c-132 1 -241 1 -243 -1 -4 -3 -102 -282 -134 -377 -10 -30 -23 -66
-28 -80 -6 -14 -31 -83 -55 -155 -109 -318 -200 -571 -206 -578 -5 -4 -32 61
-60 145 -29 84 -63 182 -76 218 -13 36 -63 178 -110 315 -48 138 -108 310
-133 383 l-47 132 -247 0 c-160 0 -248 -4 -248 -10z"/>
</g>
</svg>
